<svg height="512pt" viewBox="-42 0 512 512" width="512pt" xmlns="http://www.w3.org/2000/svg"><path d="m302.582031 204.601562c-28.203125-19.601562-58-37-89.203125-51.402343-31.199218 14.601562-61 31.800781-89.199218 51.402343-3 34.199219-3 68.796876 0 103 28.199218 19.597657 58 37 89.199218 51.398438 31.203125-14.601562 61-31.800781 89.203125-51.398438 3-34.402343 3-68.800781 0-103zm0 0" fill="#acdef9"/><path d="m150.179688 301c18 11.800781 36.800781 22.601562 56 32.398438 4.601562 2.203124 10 2.203124 14.402343 0 19.199219-9.796876 38-20.597657 56-32.398438 4.199219-2.800781 7-7.398438 7.199219-12.601562 1.199219-21.597657 1.199219-43.199219 0-64.796876-.199219-5-3-9.800781-7.199219-12.601562-18-11.800781-36.800781-22.601562-56-32.398438-4.601562-2.203124-10-2.203124-14.402343 0-19.199219 9.796876-38 20.597657-56 32.398438-4.199219 2.800781-7 7.398438-7.199219 12.601562-1.199219 21.597657-1.199219 43.199219 0 64.796876.199219 5 2.800781 9.800781 7.199219 12.601562zm0 0" fill="#60bae2"/><path d="m264.378906 308.601562c-.398437-1.203124-1.199218-2.203124-2-3-1.398437-1.601562-3.199218-2.800781-5.199218-3.203124l-20-5-12-6-4 11.601562c-.199219.601562-.800782 1.199219-1.597657 1.199219h-12.402343c-.800782 0-1.398438-.398438-1.597657-1.199219l-4-11.601562-12 6-20 5c-2 .601562-3.800781 1.601562-5.203125 3.203124-.597656 1-1 2.199219-1.398437 3.398438 13.800781 8.398438 28.199219 16.601562 43.199219 24.199219 4.601562 2.199219 10 2.199219 14.402343 0 14.597657-7.199219 29.199219-15.597657 43.796875-24.597657zm0 0" fill="#e9e9ea"/><path d="m240.378906 239.398438c-.597656 0-1.199218 0-1.796875.203124v1.796876 17.800781 1.800781c5.796875 1 11.398438-3 12.398438-8.800781s-3-11.398438-8.800781-12.398438c-.597657-.402343-1.199219-.402343-1.800782-.402343zm0 0" fill="#f9d0b4"/><path d="m187.378906 259v-17.800781c0-.597657 0-1.199219 0-1.800781-5.796875-1-11.398437 3-12.398437 8.800781s3 11.402343 8.800781 12.402343c1.199219.199219 2.398438.199219 3.597656 0 0-.601562 0-1 0-1.601562zm0 0" fill="#f9d0b4"/><path d="m216.78125 227.800781c-9.402344 11.800781-23.199219 10.199219-28 9.199219-.800781-.199219-1.402344.398438-1.601562 1v.199219 20.800781c0 14.199219 11.601562 25.601562 25.800781 25.800781 14.199219 0 25.601562-11.601562 25.800781-25.800781v-23c0-.199219 0-.199219 0-.398438 0-.800781-.601562-1.402343-1.402344-1.402343-10.597656-.398438-16.398437-4.597657-18.398437-6.597657-.601563-.601562-1.398438-.601562-2.199219.199219.199219-.199219.199219-.199219 0 0zm0 0" fill="#f9d0b4"/><path d="m212.980469 284.601562c-4 0-8-1-11.398438-2.800781v9.597657l4 11.601562c.199219.601562.796875 1.199219 1.597657 1.199219h12.402343c.796875 0 1.398438-.398438 1.597657-1.199219l4-11.601562v-10c-3.800782 2.203124-8 3.203124-12.199219 3.203124zm0 0" fill="#f9d0b4"/><path d="m185.582031 239.398438c.597657 0 1.199219 0 1.597657.203124v-1.203124c0-.796876.601562-1.398438 1.402343-1.398438h.199219c4.597656 1 18.597656 2.601562 28-9.199219.398438-.601562 1.398438-.800781 2-.199219 0 0 0 0 .199219.199219 2.199219 2.199219 7.800781 6.398438 18.398437 6.597657.800782 0 1.402344.601562 1.402344 1.402343v.398438 3.402343c3.398438-.601562 6.597656.597657 9.199219 2.796876v-19.398438c0-8.199219-6.601563-14.601562-14.601563-14.601562-2.597656 0-5.199218.800781-7.597656 2-2.601562-4.398438-7.402344-7.199219-12.601562-7.199219h-7.800782c-14.597656 0-26.597656 12-26.597656 26.601562v11.800781c2-1.402343 4.398438-2.203124 6.800781-2.203124zm0 0" fill="#6d6c6b"/><path d="m39.582031 215.800781c0 6.957031-5.644531 12.597657-12.601562 12.597657s-12.601563-5.640626-12.601563-12.597657c0-6.960937 5.644532-12.601562 12.601563-12.601562s12.601562 5.640625 12.601562 12.601562zm0 0" fill="#ffcd29"/><path d="m411.980469 215.800781c0 6.957031-5.640625 12.597657-12.601563 12.597657-6.957031 0-12.597656-5.640626-12.597656-12.597657 0-6.960937 5.640625-12.601562 12.597656-12.601562 6.960938 0 12.601563 5.640625 12.601563 12.601562zm0 0" fill="#ea4647"/><path d="m282.980469 440.199219c0 6.960937-5.640625 12.601562-12.601563 12.601562-6.957031 0-12.597656-5.640625-12.597656-12.601562 0-6.957031 5.640625-12.597657 12.597656-12.597657 6.960938 0 12.601563 5.640626 12.601563 12.597657zm0 0" fill="#6dcc6d"/><path d="m116.179688 468.800781h-29.199219c-2.800781 0-5-2.199219-5-5s2.199219-5 5-5h29.199219c2.800781 0 5 2.199219 5 5s-2.199219 5-5 5zm0 0" fill="#55acd5"/><path d="m101.582031 483.398438c-2.800781 0-5-2.199219-5-5v-29.199219c0-2.800781 2.199219-5 5-5 2.796875 0 5 2.199219 5 5v29.199219c0 2.800781-2.203125 5-5 5zm0 0" fill="#55acd5"/><path d="m64.378906 512c-.398437 0-.597656 0-1-.199219-.398437 0-.597656-.199219-1-.199219-.398437-.203124-.597656-.203124-.796875-.402343-.203125-.199219-.601562-.398438-.800781-.597657-2-2-2-5.203124 0-7 .199219-.203124.398438-.402343.800781-.601562.597657-.398438 1.199219-.601562 1.796875-.800781 2.800782-.597657 5.402344 1.199219 5.800782 4 .402343 1.601562-.199219 3.402343-1.398438 4.601562-.800781.597657-2 1.199219-3.402344 1.199219zm0 0" fill="#f75c64"/><path d="m390.78125 73.398438h-17.402344c-2.796875 0-5-2.199219-5-5 0-2.796876 2.203125-5 5-5h17.402344c2.800781 0 5 2.203124 5 5 0 2.800781-2.199219 5-5 5zm0 0" fill="#ffcd29"/><path d="m382.179688 82.199219c-2.800782 0-5-2.199219-5-5v-17.398438c0-2.800781 2.199218-5 5-5 2.800781 0 5 2.199219 5 5v17.398438c0 2.800781-2.199219 5-5 5zm0 0" fill="#ffcd29"/><path d="m298.980469 52.800781c-1.398438 0-2.601563-.601562-3.601563-1.402343-.199218-.199219-.398437-.398438-.597656-.796876-.199219-.203124-.402344-.601562-.402344-.800781-.199218-.402343-.199218-.601562-.199218-1 0-.402343 0-.601562-.199219-1 0-1.402343.601562-2.601562 1.398437-3.601562 2-1.800781 5-1.800781 7 0 1 1 1.402344 2.199219 1.402344 3.601562 0 .398438 0 .597657-.199219 1 0 .398438-.203125.597657-.203125 1-.199218.398438-.199218.597657-.398437.800781-.199219.199219-.398438.597657-.601563.796876-.796875.800781-2.199218 1.402343-3.398437 1.402343zm0 0" fill="#55acd5"/><g fill="#231f20"><path d="m240.378906 265.800781c-.796875 0-1.597656 0-2.597656-.199219-2.601562-.402343-4.402344-2.601562-4.199219-5.203124 0-.398438 0-1 0-1.398438v-17.800781c0-.398438 0-1 0-1.398438-.203125-2.601562 1.597657-4.800781 4.199219-5.199219 8.597656-1.402343 16.597656 4.398438 18 13 1.398438 8.597657-4.402344 16.597657-13 18-.800781.199219-1.601562.199219-2.402344.199219zm3.402344-20.402343v9.402343c2.597656-1.800781 3.199219-5.402343 1.398438-8-.398438-.601562-1-1-1.398438-1.402343zm0 0"/><path d="m185.582031 265.800781c-8.601562 0-15.800781-7-15.800781-15.800781 0-8.601562 7-15.800781 15.800781-15.800781.796875 0 1.796875 0 2.597657.199219 2.601562.402343 4.402343 2.601562 4.199218 5.203124v1.398438 17.800781 1.398438c.203125 2.601562-1.597656 4.800781-4.199218 5.199219-.800782.402343-1.800782.402343-2.597657.402343zm-3.203125-20.402343c-2.597656 1.800781-3.199218 5.402343-1.398437 8 .398437.601562.800781 1 1.398437 1.402343zm0 0"/><path d="m212.980469 289.601562c-17 0-30.800781-13.800781-30.800781-30.800781v-20.601562c0-3.597657 2.800781-6.398438 6.402343-6.398438.398438 0 .796875 0 1.398438.199219 4.398437 1 15.398437 2 23-7.398438 2.199219-2.800781 6.199219-3.203124 9-1 .199219.199219.398437.199219.601562.398438 1.597657 1.398438 6 5 15.199219 5.199219 3.398438.199219 6.199219 2.800781 6.199219 6.199219v23.601562c-.199219 16.800781-14 30.601562-31 30.601562zm-20.601563-47.203124v16.601562c.203125 11.398438 9.402344 20.601562 21 20.601562 11.203125-.203124 20.402344-9.203124 20.601563-20.601562v-20c-5.601563-.398438-10.800781-2.398438-15.398438-5.398438-7.203125 6.597657-16.800781 9.796876-26.203125 8.796876zm24.402344-14.597657"/><path d="m247.78125 247.398438c-1.199219 0-2.601562-.597657-3.402344-1.398438-1.199218-1.199219-3-1.800781-4.796875-1.601562-2.800781.402343-5.203125-1.398438-5.800781-4.199219 0-.199219 0-.597657 0-.800781v-.398438c-5.601562-.398438-10.800781-2.398438-15.402344-5.398438-9 9-20.597656 9.398438-27 8.796876-1 1.601562-3 2.402343-4.796875 2-.203125 0-.601562 0-.800781 0-1.402344 0-2.601562.402343-3.601562 1.203124-2.199219 1.796876-5.398438 1.398438-7-.800781-.800782-.800781-1-2-1-3.199219v-11.800781c0-17.402343 14.199218-31.601562 31.601562-31.601562h7.597656c5.402344 0 10.402344 2.199219 14.203125 6 2-.597657 4-1 6-1 10.796875 0 19.597657 8.800781 19.597657 19.601562v19.398438c-.398438 2.800781-2.597657 5.199219-5.398438 5.199219zm-42.199219-39.199219c-11.800781 0-21.601562 9.601562-21.601562 21.601562v4.199219c.199219-.199219.398437-.398438.800781-.601562 1.398438-1.199219 3.398438-1.597657 5.398438-1.199219 4.402343 1 15.402343 2 23-7.398438 2.199218-2.800781 6.199218-3.199219 9-1 .199218.199219.402343.199219.601562.398438 1.597656 1.402343 6 5 15.199219 5.199219 2.199219 0 4.199219 1.203124 5.199219 3.203124v-9.402343c0-5.398438-4.398438-9.597657-9.597657-9.597657-1.800781 0-3.402343.398438-5 1.398438-2.402343 1.398438-5.402343.601562-6.800781-1.800781-1.800781-3-4.800781-4.800781-8.402344-4.800781zm15.199219 22.601562"/><path d="m219.582031 309.199219h-12.402343c-2.800782 0-5.398438-1.800781-6.398438-4.398438l-4-11.601562c-.199219-.597657-.199219-1-.199219-1.597657v-9.601562c0-2.800781 2.199219-5 5-5 .796875 0 1.597657.199219 2.199219.601562 6 3 13.199219 2.796876 19-.402343 2.398438-1.398438 5.398438-.398438 6.800781 2 .398438.800781.597657 1.601562.597657 2.402343v10c0 .597657 0 1.199219-.199219 1.597657l-4 11.601562c-1 2.597657-3.601563 4.398438-6.398438 4.398438zm-10-10h7.796875l3-8.597657v-1.800781c-4.398437 1-9.199218 1.199219-13.796875.199219v1.601562zm0 0"/><path d="m213.378906 340c-3.398437 0-6.597656-.800781-9.597656-2.199219-19.402344-9.800781-38.199219-20.800781-56.601562-32.601562-5.597657-3.597657-9-9.800781-9.398438-16.398438-1.199219-21.800781-1.199219-43.601562 0-65.199219.398438-6.601562 4-12.800781 9.597656-16.402343 18.203125-12 37-22.800781 56.601563-32.597657 6-3 13-3 19 0 19.398437 9.796876 38.199219 20.796876 56.601562 32.597657 5.597657 3.601562 9 9.800781 9.398438 16.402343 1.199219 21.796876 1.199219 43.597657 0 65.199219-.398438 6.597657-4 12.800781-9.398438 16.398438-18.203125 12-37 22.800781-56.601562 32.601562-3 1.398438-6.398438 2.199219-9.601563 2.199219zm-60.597656-43.199219c18 11.800781 36.398438 22.398438 55.597656 32 3.203125 1.597657 6.800782 1.597657 10 0 19-9.601562 37.601563-20.402343 55.601563-32 3-2 4.800781-5.199219 5-8.601562 1.199219-21.398438 1.199219-42.800781 0-64.199219-.199219-3.398438-2-6.601562-5-8.601562-18-11.796876-36.398438-22.398438-55.601563-32-3.199218-1.597657-6.796875-1.597657-10 0-19 9.601562-37.597656 20.402343-55.597656 32-3 2-4.800781 5.203124-5 8.601562-1.199219 21.398438-1.199219 42.800781 0 64.199219.199219 3.402343 2.199219 6.601562 5 8.601562zm0 0"/><path d="m213.378906 340c-3.398437 0-6.597656-.800781-9.597656-2.199219-14.800781-7.402343-29.402344-15.601562-43.601562-24.402343-1.800782-1.199219-2.800782-3.398438-2.199219-5.398438.398437-1.601562 1-3.199219 1.800781-4.800781.199219-.199219.398438-.597657.597656-.800781 2-2.398438 4.800782-4 7.800782-4.796876l19.402343-4.800781 11.597657-5.601562c2.402343-1.199219 5.402343-.199219 6.601562 2.199219 0 .203124.199219.402343.199219.601562l3.199219 9.398438h7.800781l3.199219-9.398438c1-2.601562 3.800781-4 6.402343-3 .199219 0 .398438.199219.597657.199219l11.601562 5.601562 19.398438 4.800781c3 .796876 5.601562 2.398438 7.601562 4.597657 1.199219 1.402343 2.199219 2.800781 3 4.601562 1 2.199219 0 4.800781-2 6.199219-14.402344 9-29.199219 17.199219-44.199219 24.800781-2.601562 1.398438-6 2.199219-9.203125 2.199219zm-43.398437-32.398438c12.601562 7.597657 25.398437 14.796876 38.398437 21.199219 3.203125 1.597657 6.800782 1.597657 10 0 13-6.601562 25.800782-13.601562 38.402344-21.402343-.199219-.199219-.402344-.199219-.800781-.199219l-20-5c-.398438 0-.601563-.199219-1-.398438l-7-3.402343-2.199219 6.203124c-1 2.597657-3.402344 4.398438-6.402344 4.398438h-12.398437c-2.800781 0-5.398438-1.800781-6.398438-4.398438l-2.203125-6.402343-7 3.402343c-.398437.199219-.597656.199219-1 .398438l-20 5c0 .398438-.199218.398438-.398437.601562zm0 0"/><path d="m26.980469 233.601562c-9.800781 0-17.601563-8-17.601563-17.601562s8-17.601562 17.601563-17.601562c9.800781 0 17.601562 8 17.601562 17.601562s-8 17.601562-17.601562 17.601562zm0-25.402343c-4.199219 0-7.601563 3.402343-7.601563 7.601562s3.402344 7.597657 7.601563 7.597657 7.601562-3.398438 7.601562-7.597657-3.402343-7.601562-7.601562-7.601562zm0 0"/><path d="m399.378906 233.601562c-9.796875 0-17.597656-8-17.597656-17.601562s8-17.601562 17.597656-17.601562c9.800782 0 17.601563 8 17.601563 17.601562.199219 9.601562-7.800781 17.601562-17.601563 17.601562zm0-25.402343c-4.199218 0-7.597656 3.402343-7.597656 7.601562s3.398438 7.597657 7.597656 7.597657c4.203125 0 7.601563-3.398438 7.601563-7.597657.199219-4.199219-3.199219-7.601562-7.601563-7.601562zm0 0"/><path d="m270.378906 457.800781c-9.796875 0-17.597656-8-17.597656-17.601562 0-9.597657 8-17.597657 17.597656-17.597657 9.800782 0 17.601563 8 17.601563 17.597657 0 9.800781-7.800781 17.601562-17.601563 17.601562zm0-25.199219c-4.199218 0-7.597656 3.398438-7.597656 7.597657s3.398438 7.601562 7.597656 7.601562c4.203125 0 7.601563-3.402343 7.601563-7.601562s-3.398438-7.597657-7.601563-7.597657zm0 0"/><path d="m356.582031 402.601562c-10.800781 0-21.800781-1-32.601562-2.601562-47.601563-7.398438-104-28.800781-159-60.398438-48.199219-27.800781-91.398438-61.601562-121.199219-95-1.800781-2-1.601562-5.203124.398438-7 2-1.800781 5.199218-1.601562 7 .398438 29.199218 32.601562 71.601562 65.800781 118.800781 93 53.800781 31 109 52 155.398437 59.199219 44.203125 6.800781 75.800782-.199219 86.800782-19.199219 23.402343-40.601562-48-127.398438-155.800782-189.800781-107.796875-62.398438-218.597656-80.597657-242-40-6.398437 11.199219-6 26 1.601563 44.199219 1 2.601562-.199219 5.402343-2.601563 6.601562-2.597656 1-5.398437-.199219-6.597656-2.601562-8.601562-20.796876-9-39.199219-1-53 27-46.796876 139.398438-30.796876 255.800781 36.402343 116.398438 67.199219 186.597657 156.597657 159.597657 203.398438-10.199219 17.402343-32.597657 26.402343-64.597657 26.402343zm0 0"/><path d="m70.582031 402.800781c-31.203125 0-54.402343-8.800781-64.800781-26.800781-27-46.800781 43-136.199219 159.597656-203.398438 116.601563-67.203124 228.800782-83.203124 256-36.402343 8 13.800781 7.601563 32.199219-1.199218 53.199219-1 2.601562-4 3.800781-6.597657 2.601562-2.601562-1-3.800781-4-2.601562-6.601562 7.601562-18.199219 8.199219-33 1.601562-44.398438-23.402343-40.601562-134.402343-22.199219-242.203125 40-107.796875 62.199219-179.199218 149.199219-155.796875 189.800781 23.398438 40.597657 134.398438 22.199219 242.199219-40 47.199219-27.199219 89.398438-60.199219 118.597656-92.800781 1.800782-2 5-2.199219 7-.398438 2 1.796876 2.203125 5 .402344 7-30 33.398438-73 67-121.199219 94.796876-71.402343 41.402343-141.402343 63.402343-191 63.402343zm0 0"/><path d="m213.378906 495.800781c-54 0-96.398437-105.402343-96.398437-239.800781s42.398437-239.800781 96.398437-239.800781 96.402344 105.402343 96.402344 239.800781c0 57-8 112.199219-22.601562 155.398438-.800782 2.601562-3.800782 4-6.398438 3.203124-2.601562-.800781-4-3.800781-3.199219-6.402343 14.199219-42.199219 22-96.199219 22-152.199219 0-124.601562-39.601562-229.800781-86.402343-229.800781-46.800782 0-86.199219 105.199219-86.199219 229.800781s39.601562 229.800781 86.398437 229.800781c12.203125 0 24.203125-7.199219 35.601563-21.199219 1.800781-2.203124 4.800781-2.402343 7-.800781 2.199219 1.800781 2.398437 4.800781.800781 7-13.402344 16.597657-28 25-43.402344 25zm0 0"/></g><path d="m362.78125 16.398438c-8.199219-1.597657-14.402344-8-16-16 0-.199219-.199219-.398438-.402344-.398438-.199218 0-.199218.199219-.398437.398438-1.601563 8.203124-8 14.402343-16 16-.199219 0-.398438.203124-.398438.402343s.199219.199219.398438.398438c8.199219 1.601562 14.398437 8 16 16 0 .199219.199219.402343.398437.402343.203125 0 .203125-.203124.402344-.402343 1.597656-8.199219 8-14.398438 16-16 .199219 0 .398438-.199219.398438-.398438 0-.402343-.199219-.402343-.398438-.402343zm0 0" fill="#f75c64"/></svg>